<svg width="26" height="15" viewBox="0 0 26 15" fill="none" xmlns="http://www.w3.org/2000/svg">
<g clip-path="url(#clip0_0_544)">
<path d="M25 7.84134C25.2761 7.84134 25.5 7.61748 25.5 7.34134C25.5 7.0652 25.2761 6.84134 25 6.84134L25 7.84134ZM7.3802 7.27481C7.2008 7.06486 6.8852 7.04007 6.6752 7.21944C6.4653 7.39881 6.4405 7.71442 6.6198 7.92437L7.3802 7.27481ZM9.525 11.3248C9.7043 11.5347 10.02 11.5595 10.2299 11.3802C10.4399 11.2008 10.4646 10.8852 10.2853 10.6752L9.525 11.3248ZM10.2854 4.32479C10.4647 4.11484 10.4399 3.79923 10.23 3.61986C10.02 3.44048 9.7044 3.46528 9.525 3.67523L10.2854 4.32479ZM6.6199 7.07565C6.4405 7.2856 6.4653 7.60121 6.6753 7.78058C6.8852 7.95995 7.2009 7.93516 7.3802 7.72521L6.6199 7.07565ZM25 6.84134L7.1044 6.84134L7.1044 7.84134L25 7.84134L25 6.84134ZM6.6198 7.92437L9.525 11.3248L10.2853 10.6752L7.3802 7.27481L6.6198 7.92437ZM9.525 3.67523L6.6199 7.07565L7.3802 7.72521L10.2854 4.32479L9.525 3.67523Z" fill="#3B2424"/>
</g>
<g clip-path="url(#clip1_0_544)">
<path d="M7.5 0.500001C3.63401 0.500001 0.5 3.63401 0.500001 7.5C0.500001 11.366 3.63401 14.5 7.5 14.5C11.366 14.5 14.5 11.366 14.5 7.5C14.5 3.63401 11.366 0.5 7.5 0.500001Z" stroke="#3B2424" stroke-opacity="0.23"/>
</g>
<defs>
<clipPath id="clip0_0_544">
<rect width="20" height="9" fill="white" transform="translate(26 12) rotate(180)"/>
</clipPath>
<clipPath id="clip1_0_544">
<rect width="15" height="15" fill="white" transform="translate(15 15) rotate(180)"/>
</clipPath>
</defs>
</svg>
