<svg width="24" height="24" viewBox="0 0 24 24" fill="none" xmlns="http://www.w3.org/2000/svg">
<path fill-rule="evenodd" clip-rule="evenodd" d="M4 18.6458V8.05426C4 5.20025 4 3.77325 4.87868 2.88663C5.75736 2 7.17157 2 10 2H14C16.8284 2 18.2426 2 19.1213 2.88663C20 3.77325 20 5.20025 20 8.05426V18.6458C20 20.1575 20 20.9133 19.538 21.2108C18.909 21.616 17.9939 20.9757 17.3666 20.5367C17.241 20.4488 17.127 20.369 17.0291 20.3073L17.029 20.3072L17.029 20.3072C16.5441 20.0014 16.3017 19.8485 16.0325 19.8397C15.7417 19.8301 15.4949 19.9768 14.9709 20.3073L13.06 21.5124L13.0589 21.5131C12.5441 21.8376 12.2866 22 12 22C11.7134 22 11.4559 21.8376 10.9411 21.5131L10.9411 21.5131L10.94 21.5124L9.02913 20.3073C8.54415 20.0014 8.30166 19.8485 8.03253 19.8397C7.74172 19.8301 7.49493 19.9768 6.97087 20.3073C6.87303 20.369 6.75906 20.4487 6.63357 20.5366L6.63353 20.5366C6.00625 20.9756 5.09101 21.616 4.46195 21.2108C4 20.9133 4 20.1575 4 18.6458ZM7.28564 7.98131C7.28564 7.53751 7.64542 7.17773 8.08922 7.17773H15.9106C16.3544 7.17773 16.7142 7.53751 16.7142 7.98131C16.7142 8.42511 16.3544 8.78488 15.9106 8.78488H8.08922C7.64542 8.78488 7.28564 8.42511 7.28564 7.98131ZM8.08922 12.1074C7.64542 12.1074 7.28564 12.4672 7.28564 12.911C7.28564 13.3548 7.64542 13.7146 8.08922 13.7146H15.9106C16.3544 13.7146 16.7142 13.3548 16.7142 12.911C16.7142 12.4672 16.3544 12.1074 15.9106 12.1074H8.08922Z" fill="#777777"/>
</svg>
