<svg width="20" height="20" viewBox="0 0 20 20" fill="none" xmlns="http://www.w3.org/2000/svg">
<path d="M17.7084 10H7.41258M3.77841 10H2.29175M3.77841 10C3.77841 9.5182 3.96981 9.05612 4.3105 8.71543C4.6512 8.37474 5.11327 8.18334 5.59508 8.18334C6.07689 8.18334 6.53897 8.37474 6.87966 8.71543C7.22035 9.05612 7.41175 9.5182 7.41175 10C7.41175 10.4818 7.22035 10.9439 6.87966 11.2846C6.53897 11.6253 6.07689 11.8167 5.59508 11.8167C5.11327 11.8167 4.6512 11.6253 4.3105 11.2846C3.96981 10.9439 3.77841 10.4818 3.77841 10ZM17.7084 15.5058H12.9184M12.9184 15.5058C12.9184 15.9878 12.7266 16.4504 12.3858 16.7911C12.045 17.1319 11.5828 17.3233 11.1009 17.3233C10.6191 17.3233 10.157 17.1311 9.81634 16.7904C9.47565 16.4497 9.28425 15.9876 9.28425 15.5058M12.9184 15.5058C12.9184 15.0239 12.7266 14.5622 12.3858 14.2214C12.045 13.8806 11.5828 13.6892 11.1009 13.6892C10.6191 13.6892 10.157 13.8806 9.81634 14.2213C9.47565 14.562 9.28425 15.024 9.28425 15.5058M9.28425 15.5058H2.29175M17.7084 4.49417H15.1209M11.4867 4.49417H2.29175M11.4867 4.49417C11.4867 4.01236 11.6781 3.55029 12.0188 3.20959C12.3595 2.8689 12.8216 2.67751 13.3034 2.67751C13.542 2.67751 13.7782 2.7245 13.9986 2.81579C14.219 2.90709 14.4193 3.0409 14.588 3.20959C14.7567 3.37829 14.8905 3.57856 14.9818 3.79896C15.0731 4.01937 15.1201 4.2556 15.1201 4.49417C15.1201 4.73274 15.0731 4.96897 14.9818 5.18938C14.8905 5.40979 14.7567 5.61006 14.588 5.77875C14.4193 5.94744 14.219 6.08126 13.9986 6.17255C13.7782 6.26385 13.542 6.31084 13.3034 6.31084C12.8216 6.31084 12.3595 6.11944 12.0188 5.77875C11.6781 5.43806 11.4867 4.97598 11.4867 4.49417Z" stroke="#828E9F" stroke-width="1.25" stroke-miterlimit="10" stroke-linecap="round"/>
</svg>
