<svg width="22" height="19" viewBox="0 0 22 19" fill="none" xmlns="http://www.w3.org/2000/svg">
<path fill-rule="evenodd" clip-rule="evenodd" d="M1.27695 0.00165C0.920554 0.01985 0.585953 0.17885 0.346853 0.44375C0.107653 0.70855 -0.016447 1.05755 0.00175299 1.41395C0.019853 1.77035 0.178953 2.10485 0.443753 2.34405C0.708653 2.58315 1.05765 2.70735 1.41405 2.68915H20.0384C20.3948 2.68915 20.7366 2.54755 20.9886 2.29555C21.2406 2.04355 21.3822 1.70185 21.3822 1.34545C21.3822 0.98905 21.2406 0.64725 20.9886 0.39525C20.7366 0.14325 20.3948 0.00165 20.0384 0.00165H1.41405C1.36925 -0.00055 1.32175 -0.00055 1.27695 0.00165ZM1.27695 8.06415C0.920554 8.08235 0.585953 8.24135 0.346853 8.50625C0.107653 8.77105 -0.016447 9.12005 0.00175299 9.47645C0.019853 9.83285 0.178953 10.1673 0.443753 10.4065C0.708653 10.6456 1.05765 10.7698 1.41405 10.7516H20.0384C20.3948 10.7516 20.7366 10.61 20.9886 10.358C21.2406 10.106 21.3822 9.76435 21.3822 9.40795C21.3822 9.05155 21.2406 8.70975 20.9886 8.45775C20.7366 8.20575 20.3948 8.06415 20.0384 8.06415H1.41405C1.36925 8.06195 1.32175 8.06195 1.27695 8.06415ZM1.27695 16.1266C0.920554 16.1448 0.585953 16.3039 0.346853 16.5688C0.107653 16.8335 -0.016447 17.1826 0.00175299 17.5389C0.019853 17.8953 0.178953 18.2299 0.443753 18.469C0.708653 18.7083 1.05765 18.8323 1.41405 18.8141H20.0384C20.3948 18.8141 20.7366 18.6726 20.9886 18.4205C21.2406 18.1685 21.3822 17.8268 21.3822 17.4704C21.3822 17.114 21.2406 16.7723 20.9886 16.5203C20.7366 16.2682 20.3948 16.1266 20.0384 16.1266H1.41405C1.36925 16.1245 1.32175 16.1245 1.27695 16.1266Z" fill="#100808"/>
</svg>
