<svg width="26" height="15" viewBox="0 0 26 15" fill="none" xmlns="http://www.w3.org/2000/svg">
<g clip-path="url(#clip0_0_99)">
<path d="M1 7.15866C0.723858 7.15866 0.5 7.38252 0.5 7.65866C0.5 7.9348 0.723858 8.15866 1 8.15866V7.15866ZM18.6198 7.72519C18.7992 7.93514 19.1148 7.95993 19.3248 7.78056C19.5347 7.60119 19.5595 7.28558 19.3802 7.07563L18.6198 7.72519ZM16.475 3.67521C16.2957 3.46526 15.98 3.44047 15.7701 3.61984C15.5601 3.79921 15.5354 4.11482 15.7147 4.32477L16.475 3.67521ZM15.7146 10.6752C15.5353 10.8852 15.5601 11.2008 15.77 11.3801C15.98 11.5595 16.2956 11.5347 16.475 11.3248L15.7146 10.6752ZM19.3801 7.92435C19.5595 7.7144 19.5347 7.39879 19.3247 7.21942C19.1148 7.04005 18.7991 7.06484 18.6198 7.27479L19.3801 7.92435ZM1 8.15866H18.8956V7.15866H1V8.15866ZM19.3802 7.07563L16.475 3.67521L15.7147 4.32477L18.6198 7.72519L19.3802 7.07563ZM16.475 11.3248L19.3801 7.92435L18.6198 7.27479L15.7146 10.6752L16.475 11.3248Z" fill="#3B2424"/>
</g>
<g clip-path="url(#clip1_0_99)">
<path d="M18.5 14.5C22.366 14.5 25.5 11.366 25.5 7.5C25.5 3.63401 22.366 0.5 18.5 0.5C14.634 0.5 11.5 3.63401 11.5 7.5C11.5 11.366 14.634 14.5 18.5 14.5Z" stroke="#3B2424" stroke-opacity="0.23"/>
</g>
<defs>
<clipPath id="clip0_0_99">
<rect width="20" height="9" fill="white" transform="translate(0 3)"/>
</clipPath>
<clipPath id="clip1_0_99">
<rect width="15" height="15" fill="white" transform="translate(11)"/>
</clipPath>
</defs>
</svg>
